<?xml version="1.0" encoding="iso-8859-1"?>
<!-- Generator: Adobe Illustrator 19.0.0, SVG Export Plug-In . SVG Version: 6.00 Build 0)  -->
<svg version="1.1" id="Capa_1" xmlns="http://www.w3.org/2000/svg" xmlns:xlink="http://www.w3.org/1999/xlink" x="0px" y="0px"
	 viewBox="0 0 480 480" style="enable-background:new 0 0 480 480;" xml:space="preserve">
<g>
	<g>
		<path d="M376,304H112c-4.418,0-8,3.582-8,8v112c0,4.418,3.582,8,8,8h264c4.418,0,8-3.582,8-8V312C384,307.582,380.418,304,376,304
			z M368,416H120v-56h192v16c0,4.418,3.582,8,8,8s8-3.582,8-8v-16h16c4.418,0,8-3.582,8-8s-3.582-8-8-8H120v-24h248V416z"/>
	</g>
</g>
<g>
	<g>
		<rect x="136" y="232" width="16" height="16"/>
	</g>
</g>
<g>
	<g>
		<rect x="328" y="232" width="16" height="16"/>
	</g>
</g>
<g>
	<g>
		<path d="M472,208h-32V104c-0.091-28.207-11.641-55.165-32-74.688V8c0-4.418-3.582-8-8-8H80c-4.418,0-8,3.582-8,8v21.312
			C51.641,48.835,40.091,75.793,40,104v104H8c-4.418,0-8,3.582-8,8v160c0,4.418,3.582,8,8,8h32.408
			c4.21,54.119,49.309,95.913,103.592,96h192c54.283-0.087,99.382-41.881,103.592-96H472c4.418,0,8-3.582,8-8V216
			C480,211.582,476.418,208,472,208z M40,368H16V256h24V368z M40,240H16v-16h24V240z M88,16h304v156l-16,12v-72c0-4.418-3.582-8-8-8
			h-64c-4.418,0-8,3.582-8,8v114.528c-35.689,15.672-76.311,15.672-112,0V112c0-4.418-3.582-8-8-8h-64c-4.418,0-8,3.582-8,8v72
			l-16-12V16z M312,152v-32h48v32H312z M360,168v84l-24,18l-24-18v-84H360z M120,152v-32h48v32H120z M168,168v84l-24,18l-24-18v-84
			H168z M424,376c-0.057,48.577-39.423,87.943-88,88H144c-48.577-0.057-87.943-39.423-88-88V104
			c0.048-17.997,5.634-35.544,16-50.256V176c0,2.518,1.186,4.889,3.2,6.4L104,204v52c0,2.518,1.186,4.889,3.2,6.4l32,24
			c2.844,2.133,6.756,2.133,9.6,0l32-24c2.014-1.511,3.2-3.882,3.2-6.4v-12.192c36.004,14.091,75.996,14.091,112,0V256
			c0,2.518,1.186,4.889,3.2,6.4l32,24c2.844,2.133,6.756,2.133,9.6,0l32-24c2.014-1.511,3.2-3.882,3.2-6.4v-52l28.8-21.6
			c2.014-1.511,3.2-3.882,3.2-6.4V53.744c10.366,14.712,15.952,32.259,16,50.256V376z M464,368h-24V256h24V368z M464,240h-24v-16h24
			V240z"/>
	</g>
</g>
<g>
</g>
<g>
</g>
<g>
</g>
<g>
</g>
<g>
</g>
<g>
</g>
<g>
</g>
<g>
</g>
<g>
</g>
<g>
</g>
<g>
</g>
<g>
</g>
<g>
</g>
<g>
</g>
<g>
</g>
</svg>
