<svg id="line_icons" height="512" viewBox="0 0 74 74" width="512" xmlns="http://www.w3.org/2000/svg" data-name="line icons"><path d="m47.576 72a18.636 18.636 0 0 1 -10.576-3.25 18.636 18.636 0 0 1 -10.576 3.25c-10.698 0-18.862-25.307-18.862-35.643a18.883 18.883 0 0 1 18.862-18.857 18.636 18.636 0 0 1 10.576 3.245 18.636 18.636 0 0 1 10.576-3.245 18.883 18.883 0 0 1 18.862 18.857c0 10.336-8.164 35.643-18.862 35.643zm-10.576-5.477a1 1 0 0 1 .6.2 16.636 16.636 0 0 0 9.976 3.277c3.841 0 8.111-4.746 11.712-13.02 2.984-6.855 5.15-15.528 5.15-20.623a16.881 16.881 0 0 0 -16.862-16.857 16.636 16.636 0 0 0 -9.98 3.281 1 1 0 0 1 -1.192 0 16.636 16.636 0 0 0 -9.98-3.281 16.881 16.881 0 0 0 -16.862 16.857c0 10.51 8.152 33.643 16.862 33.643a16.636 16.636 0 0 0 9.98-3.281 1 1 0 0 1 .596-.196z"/><path d="m37 22.972a1 1 0 0 1 -1-1c0-.108-.062-10.841-8.327-14.24a1 1 0 0 1 .762-1.85c9.521 3.918 9.565 15.6 9.565 16.096a1 1 0 0 1 -1 .994z"/><path d="m40.409 16.83a17.164 17.164 0 0 1 -4.889-.738 1 1 0 0 1 -.665-.729 8.323 8.323 0 0 1 1.756-6.883 6.967 6.967 0 0 1 5.743-2.614 5.075 5.075 0 0 0 5.085-3.194 1 1 0 0 1 .875-.667.983.983 0 0 1 .958.536 10.883 10.883 0 0 1 -1.138 10.619c-1.902 2.94-5.049 3.67-7.725 3.67zm-3.7-2.482c1.792.445 7.325 1.457 9.745-2.276a9.528 9.528 0 0 0 1.6-6.631 7.14 7.14 0 0 1 -5.775 2.424 4.953 4.953 0 0 0 -4.132 1.89 6.389 6.389 0 0 0 -1.436 4.593z"/><path d="m16.341 31.827a1 1 0 0 1 -.875-1.482 12.482 12.482 0 0 1 15.176-5.761 1 1 0 1 1 -.676 1.882 10.483 10.483 0 0 0 -12.748 4.843 1 1 0 0 1 -.877.518z"/><path d="m14.924 37.188h-.015a1 1 0 0 1 -.985-1.015 12.046 12.046 0 0 1 .162-1.729 1 1 0 0 1 1.975.311 10.166 10.166 0 0 0 -.137 1.448 1 1 0 0 1 -1 .985z"/></svg>