<?xml version="1.0" encoding="iso-8859-1"?>
<!-- Generator: Adobe Illustrator 19.0.0, SVG Export Plug-In . SVG Version: 6.00 Build 0)  -->
<svg version="1.1" id="Capa_1" xmlns="http://www.w3.org/2000/svg" xmlns:xlink="http://www.w3.org/1999/xlink" x="0px"
	y="0px" viewBox="0 0 512 512" style="enable-background:new 0 0 512 512;" xml:space="preserve">
	<g transform="translate(-20 -0.957)">
		<g>
			<g>
				<path
					d="M276,0.957c-141.158,0-256,114.842-256,256s114.842,256,256,256s256-114.842,256-256S417.158,0.957,276,0.957z
				 M225.875,58.514c16.461-4.207,33.323-6.34,50.116-6.357H276c4.71,0,8.533,3.814,8.533,8.525
				c0.009,4.719-3.806,8.542-8.525,8.542c-15.377,0.017-30.822,1.971-45.909,5.82c-0.708,0.188-1.417,0.265-2.116,0.265
				c-3.806,0-7.279-2.56-8.26-6.417C218.554,64.326,221.31,59.675,225.875,58.514z M95.153,206.423
				c-4.565,16.384-6.878,33.382-6.886,50.543c0,4.71-3.814,8.525-8.533,8.525c-4.71,0-8.533-3.823-8.533-8.533
				c0.009-18.697,2.534-37.239,7.509-55.108c1.263-4.54,5.956-7.185,10.505-5.931C93.762,197.181,96.416,201.883,95.153,206.423z
				 M109.054,171.018c-1.519,2.944-4.506,4.625-7.603,4.625c-1.306,0-2.645-0.299-3.9-0.947c-4.181-2.159-5.837-7.305-3.678-11.494
				c20.104-39.04,53.333-71.228,93.568-90.632c4.241-2.048,9.335-0.273,11.392,3.977c2.048,4.25,0.265,9.344-3.977,11.392
				C157.941,105.746,127.469,135.246,109.054,171.018z M329.376,454.538c-17.459,4.779-35.413,7.211-53.367,7.219H276
				c-4.702,0-8.525-3.814-8.533-8.525c0-4.719,3.814-8.533,8.533-8.542c16.427-0.009,32.87-2.236,48.87-6.613
				c4.506-1.254,9.242,1.434,10.487,5.982C336.604,448.607,333.924,453.292,329.376,454.538z M350.3,295.058
				c9.984,9.975,9.984,26.223,0,36.198c-4.983,4.992-11.546,7.492-18.099,7.492s-13.107-2.5-18.099-7.492L276,293.155
				l-38.093,38.101c-9.984,9.984-26.223,9.984-36.207,0c-9.984-9.975-9.984-26.223,0-36.198l38.101-38.101L201.7,218.856
				c-9.984-9.975-9.984-26.223,0-36.198c9.984-9.984,26.223-9.984,36.207,0L276,220.759l38.101-38.101
				c9.984-9.984,26.223-9.984,36.198,0c9.984,9.976,9.984,26.223,0,36.198l-38.093,38.101L350.3,295.058z M461.762,343.306
				c-18.748,40.26-51.106,73.984-91.102,94.95c-1.271,0.666-2.62,0.973-3.959,0.973c-3.072,0-6.042-1.655-7.561-4.565
				c-2.193-4.173-0.58-9.336,3.593-11.52c36.702-19.243,66.381-50.159,83.558-87.049c1.997-4.267,7.074-6.135,11.341-4.13
				C461.907,333.953,463.75,339.031,461.762,343.306z M467.096,310.495c-0.649,0-1.297-0.068-1.954-0.222
				c-4.591-1.084-7.441-5.675-6.366-10.266c3.285-13.961,4.949-28.45,4.958-43.059c0.009-4.71,3.831-8.525,8.533-8.525h0.009
				c4.719,0.009,8.533,3.831,8.525,8.542c-0.009,15.915-1.826,31.71-5.402,46.95C474.468,307.841,470.97,310.495,467.096,310.495z"
					fill="#009e7f" />
				<path d="M326.17,194.724l-44.134,44.134c-3.328,3.328-8.73,3.328-12.066,0l-44.134-44.134c-3.226-3.217-8.841-3.217-12.066,0
				c-1.604,1.613-2.492,3.755-2.492,6.033c0,2.278,0.887,4.42,2.492,6.033l44.134,44.134c3.337,3.337,3.337,8.73,0,12.066
				l-44.134,44.134c-1.604,1.613-2.492,3.755-2.492,6.033s0.887,4.42,2.492,6.033c3.226,3.217,8.841,3.217,12.066,0l44.134-44.134
				c1.664-1.664,3.849-2.5,6.033-2.5c2.185,0,4.369,0.836,6.033,2.5l44.134,44.134c3.226,3.217,8.841,3.217,12.066,0
				c1.613-1.613,2.5-3.755,2.5-6.033s-0.887-4.42-2.5-6.033l-44.134-44.134c-3.328-3.337-3.328-8.73,0-12.066l44.134-44.134
				c1.613-1.613,2.5-3.755,2.5-6.033c0-2.278-0.887-4.42-2.5-6.033C335.011,191.507,329.396,191.507,326.17,194.724z"
					fill="#009e7f" />
			</g>
		</g>
	</g>
	<g>
	</g>
	<g>
	</g>
	<g>
	</g>
	<g>
	</g>
	<g>
	</g>
	<g>
	</g>
	<g>
	</g>
	<g>
	</g>
	<g>
	</g>
	<g>
	</g>
	<g>
	</g>
	<g>
	</g>
	<g>
	</g>
	<g>
	</g>
	<g>
	</g>
</svg>