<?xml version="1.0" encoding="iso-8859-1"?>
<!-- Generator: Adobe Illustrator 19.0.0, SVG Export Plug-In . SVG Version: 6.00 Build 0)  -->
<svg version="1.1" id="Capa_1" xmlns="http://www.w3.org/2000/svg" xmlns:xlink="http://www.w3.org/1999/xlink" x="0px" y="0px"
	 viewBox="0 0 426 426" style="enable-background:new 0 0 426 426;" xml:space="preserve">
<g>
	<g>
		<path d="M386.6,113.2H361c-3.6,0-6.8,1.2-9.6,3.2C339.8,49.2,281.4,0,213.4,0S87,49.2,74.6,116.4c-2.8-2-6-3.2-9.6-3.2H39.4
			c-4.4,0.4-8.4,2-11.6,5.2c-3.2,3.2-4.8,7.2-4.8,11.6s1.6,8.4,4.8,11.6c3.2,3.2,7.2,4.8,11.6,4.8h6.8
			C49.4,228,111,295.2,191.8,305.6v77.2H149c-20.4,0-36.8,16.4-36.8,36.8c0,3.6,2.8,6.4,6.4,6.4H307c3.6,0,6.4-2.8,6.4-6.4
			c0-20.4-16.4-36.8-36.8-36.8h-43.2v-77.6c81.2-10,143.2-77.6,146.4-159.2h6.8c4.4,0,8.4-1.6,11.6-4.8c3.2-3.2,4.8-7.2,4.8-11.6
			C403,120.8,395.8,113.2,386.6,113.2z M123.4,50.8c50-50.8,130.4-50.8,180.4,0c23.6,24.4,37.2,57.6,37.2,92.4
			c0,34.4-13.2,67.6-37.2,92c-50,50.8-130.4,51.2-180.4,0S73.4,101.6,123.4,50.8z M40.2,134c-1.2,0-2.4-0.4-2.8-1.2
			c-0.8-0.8-1.2-1.6-1.2-2.8s0.4-2,1.2-2.8s1.6-1.2,2.8-1.2h25.6c2.4,0,4,1.6,4,4c0,1.2-0.4,2-1.2,2.8c-0.8,0.8-1.6,1.2-2.8,1.2
			H40.2z M276.6,395.6c11.2,0.4,20.8,7.6,23.6,18.4H125.8c2.8-10.8,12.4-18.4,23.6-18.4h78H276.6z M204.6,306
			c2.8,0.4,5.6,0.4,8.4,0.4c2.8,0,5.2,0,8,0l0.4,76h-16.8V306z M221.4,292.4c-85.2,4.4-157.6-60.8-162-146h6.4c2.8,0,5.2-0.8,7.6-2
			c0,77.2,62.8,140,140,140s140-62.8,140-140c2.4,1.2,4.8,2,7.6,2h6.4C363.4,225.2,300.2,288.4,221.4,292.4z M389.4,132.8
			c-0.8,0.8-1.6,1.2-2.8,1.2H361c-1.2,0-2-0.8-2.8-1.2c-0.8-0.8-1.2-1.6-1.2-2.8s0.4-2,1.2-2.8s2-1.2,2.8-1.2h25.6c2.4,0,4,1.6,4,4
			C390.6,131.2,390.2,132,389.4,132.8z"/>
	</g>
</g>
<g>
</g>
<g>
</g>
<g>
</g>
<g>
</g>
<g>
</g>
<g>
</g>
<g>
</g>
<g>
</g>
<g>
</g>
<g>
</g>
<g>
</g>
<g>
</g>
<g>
</g>
<g>
</g>
<g>
</g>
</svg>
