<svg id="_x35_0" enable-background="new 0 0 512 512" height="512" viewBox="0 0 512 512" width="512" xmlns="http://www.w3.org/2000/svg"><path d="m81.531 197.479 6.511 24.612c.353 1.335 1.723 2.13 3.056 1.778 1.335-.353 2.131-1.722 1.778-3.056l-6.127-23.163h272.62l-35.277 127.814h-18.408v-96.05c0-6.892-5.607-12.5-12.5-12.5s-12.5 5.607-12.5 12.5v96.05h-26.651v-96.05c0-6.892-5.607-12.5-12.5-12.5s-12.5 5.607-12.5 12.5v96.05h-26.651v-96.05c0-6.892-5.607-12.5-12.5-12.5s-12.5 5.607-12.5 12.5v95.997c-33.88-1.095-63.273-24.338-71.991-57.295l-5.513-20.84c-.353-1.334-1.724-2.132-3.056-1.778-1.335.353-2.131 1.722-1.778 3.056l5.513 20.84c9.512 35.957 42.132 61.069 79.325 61.069h20 31.651 20 31.651 20 19.528l-12.548 45.465h-155.672c-6.893 0-12.5 5.607-12.5 12.5 0 6.333 4.738 11.568 10.853 12.379-6.565 4.72-10.853 12.418-10.853 21.103 0 14.327 11.655 25.982 25.981 25.982 14.327 0 25.982-11.655 25.982-25.982 0-8.61-4.213-16.251-10.683-20.981h105.241c-6.47 4.73-10.683 12.371-10.683 20.981 0 14.327 11.655 25.982 25.982 25.982 14.326 0 25.981-11.655 25.981-25.982 0-8.61-4.213-16.251-10.683-20.981h8.183c1.125 0 2.111-.751 2.41-1.835l66.585-241.246h54.568c6.893 0 12.5-5.607 12.5-12.5s-5.607-12.5-12.5-12.5h-71.699c-1.125 0-2.111.751-2.41 1.835l-10.479 37.967h-38.125c-1.381 0-2.5 1.119-2.5 2.5s1.119 2.5 2.5 2.5h40.028c1.125 0 2.111-.751 2.41-1.835l10.479-37.967h69.795c4.135 0 7.5 3.364 7.5 7.5s-3.365 7.5-7.5 7.5h-56.471c-1.125 0-2.111.751-2.41 1.835l-66.584 241.246h-170.898c-4.135 0-7.5-3.364-7.5-7.5s3.365-7.5 7.5-7.5h157.574c1.125 0 2.111-.751 2.41-1.835l13.928-50.463c0-.001 0-.001.001-.002l36.657-132.814c.208-.752.052-1.559-.42-2.18-.473-.621-1.208-.985-1.989-.985h-279.153c-4.136 0-7.5-3.364-7.5-7.5 0-4.135 3.364-7.5 7.5-7.5h209.131c1.381 0 2.5-1.119 2.5-2.5s-1.119-2.5-2.5-2.5h-209.131c-6.893 0-12.5 5.607-12.5 12.5 0 6.221 4.573 11.38 10.531 12.329zm115.85 127.985h-15v-96.05c0-4.135 3.364-7.5 7.5-7.5s7.5 3.364 7.5 7.5zm51.651 0h-15v-96.05c0-4.135 3.364-7.5 7.5-7.5s7.5 3.364 7.5 7.5zm51.651 0h-15v-96.05c0-4.135 3.364-7.5 7.5-7.5s7.5 3.364 7.5 7.5zm3.129 75.465c11.569 0 20.981 9.412 20.981 20.981s-9.412 20.982-20.981 20.982-20.982-9.413-20.982-20.982 9.413-20.981 20.982-20.981zm-135.839 0c11.569 0 20.982 9.412 20.982 20.981s-9.413 20.982-20.982 20.982-20.981-9.413-20.981-20.982 9.412-20.981 20.981-20.981z" fill="rgb(0,0,0)"/></svg>